<svg xmlns="http://www.w3.org/2000/svg" fill="none" viewBox="0 0 13 19">
  <g clip-path="url(#O8bJwmlXRPCa)">
    <path d="M2.223 18.335c0 .35.283.542.613.427l.657-.228v-5.201c-.444-.194-.825-.433-1.27-.713v5.715zm7.368.234l.533.189c.33.117.61-.073.61-.423V12.62a4.7 4.7 0 01-1.143.656v5.293zM13 6.5a6.5 6.5 0 11-13 0 6.5 6.5 0 0113 0zm-1.315 0A5.19 5.19 0 006.5 1.315 5.19 5.19 0 001.315 6.5 5.19 5.19 0 006.5 11.685 5.19 5.19 0 0011.685 6.5zm-.953 0A4.237 4.237 0 016.5 10.732 4.237 4.237 0 012.268 6.5 4.237 4.237 0 016.5 2.268 4.237 4.237 0 0110.732 6.5zm-1.894-.638a.477.477 0 00-.385-.325l-1.069-.155-.478-.969a.477.477 0 00-.854 0l-.479.969-1.068.155a.476.476 0 00-.264.813l.773.753-.183 1.065a.476.476 0 00.692.502l.956-.502.956.502a.476.476 0 00.691-.502l-.183-1.065.774-.753a.477.477 0 00.12-.488z" fill="#4341A6"/>
    <path d="M8.638 13.637a7.52 7.52 0 01-2.16.316 7.74 7.74 0 01-2.032-.28v4.53l1.489-.513c.33-.115.867-.113 1.196.004l1.507.537v-4.594z" fill="#7978C1"/>
  </g>
  <defs>
    <clipPath id="O8bJwmlXRPCa">
      <path fill="#fff" d="M0 0h13v18.795H0z"/>
    </clipPath>
  </defs>
</svg>
