<svg xmlns="http://www.w3.org/2000/svg" fill="none" viewBox="0 0 130 50">
  <path d="M57.223 32.475c-1.323-.578-2.361-1.399-3.117-2.461-.756-1.063-1.133-2.302-1.133-3.719h4.32c.095 1.063.514 1.936 1.258 2.62.744.686 1.788 1.028 3.134 1.028 1.393 0 2.479-.337 3.258-1.01.78-.672 1.169-1.54 1.169-2.602 0-.826-.242-1.5-.726-2.02a4.867 4.867 0 00-1.806-1.203c-.72-.283-1.718-.59-2.993-.921-1.606-.425-2.91-.855-3.913-1.293-1.004-.436-1.86-1.115-2.568-2.036s-1.062-2.148-1.062-3.683c0-1.417.354-2.656 1.062-3.719.708-1.062 1.7-1.877 2.975-2.443 1.275-.567 2.75-.85 4.427-.85 2.384 0 4.338.596 5.861 1.788 1.523 1.192 2.367 2.828 2.532 4.905H65.44c-.07-.897-.496-1.664-1.275-2.302-.779-.637-1.806-.956-3.08-.956-1.158 0-2.103.295-2.834.885-.732.59-1.098 1.44-1.098 2.55 0 .756.23 1.376.69 1.86.46.484 1.045.867 1.754 1.15.708.284 1.676.59 2.904.921 1.629.45 2.957.898 3.984 1.346 1.027.449 1.9 1.14 2.62 2.072.72.933 1.08 2.178 1.08 3.736 0 1.252-.336 2.432-1.008 3.542-.673 1.11-1.653 2-2.94 2.674-1.287.672-2.804 1.009-4.55 1.009-1.654 0-3.141-.29-4.463-.868zm43.666-23.994v24.614h-4.037V16.237l-7.508 16.858h-2.798l-7.543-16.858v16.858h-4.038V8.48h4.356l8.642 19.301 8.606-19.3h4.32zm10.217 23.25a11.928 11.928 0 01-4.568-4.497c-1.122-1.925-1.683-4.09-1.683-6.499 0-2.408.561-4.569 1.683-6.481a11.97 11.97 0 014.568-4.48c1.924-1.074 4.031-1.612 6.322-1.612 2.313 0 4.432.538 6.356 1.612a11.848 11.848 0 014.551 4.48c1.11 1.912 1.665 4.073 1.665 6.481 0 2.408-.555 4.575-1.665 6.499a11.809 11.809 0 01-4.551 4.497c-1.924 1.075-4.043 1.612-6.356 1.612-2.291 0-4.398-.537-6.322-1.612zm10.678-3.01c1.275-.744 2.272-1.806 2.992-3.187.72-1.381 1.08-2.98 1.08-4.799 0-1.818-.36-3.411-1.08-4.781-.72-1.37-1.717-2.42-2.992-3.152-1.275-.732-2.727-1.098-4.356-1.098-1.63 0-3.082.366-4.357 1.098-1.274.732-2.272 1.783-2.992 3.152-.721 1.37-1.08 2.963-1.08 4.781 0 1.818.359 3.418 1.08 4.799.72 1.38 1.718 2.443 2.992 3.187 1.275.744 2.727 1.116 4.357 1.116 1.629 0 3.081-.372 4.356-1.116z" fill="#4341A6"/>
  <path d="M53.078 46.232a2.547 2.547 0 01-1.058-.842 2.156 2.156 0 01-.396-1.244h1.2c.042.405.209.745.502 1.021.293.277.72.415 1.28.415.537 0 .96-.134 1.27-.402.309-.268.463-.613.463-1.034 0-.33-.09-.598-.272-.804a1.742 1.742 0 00-.68-.47c-.273-.108-.64-.224-1.102-.347a9.705 9.705 0 01-1.368-.446 2.201 2.201 0 01-.878-.699c-.244-.318-.365-.745-.365-1.28 0-.471.12-.888.358-1.25.24-.364.576-.645 1.01-.843.432-.198.93-.297 1.49-.297.81 0 1.472.203 1.987.607.516.404.806.94.873 1.609h-1.238c-.041-.33-.215-.62-.52-.873-.305-.251-.71-.377-1.213-.377-.47 0-.854.121-1.15.365-.298.243-.446.584-.446 1.02 0 .315.088.57.266.768.177.198.396.349.656.452.26.103.625.22 1.095.353.57.157 1.027.311 1.374.464a2.3 2.3 0 01.891.705c.248.318.371.749.371 1.294 0 .42-.111.816-.334 1.188-.222.371-.553.672-.99.903-.438.231-.953.347-1.547.347-.57 0-1.079-.1-1.529-.303zm7.927-5.638v3.998c0 .33.07.563.21.7.141.135.384.203.73.203h.83v.953H61.76c-.627 0-1.097-.144-1.41-.433-.314-.288-.471-.763-.471-1.423v-3.998H59v-.928h.879v-1.708h1.126v1.708h1.77v.928h-1.77zm3.627.613c.28-.524.666-.93 1.157-1.22a3.172 3.172 0 011.64-.433c.594 0 1.11.129 1.547.384.437.256.763.578.978.966v-1.238h1.138v6.782h-1.138v-1.262c-.223.396-.555.724-.997.984-.441.26-.955.39-1.54.39a3.074 3.074 0 01-1.634-.446 3.125 3.125 0 01-1.151-1.25c-.281-.536-.421-1.146-.421-1.831 0-.694.14-1.302.42-1.826zm5.012.501a2.188 2.188 0 00-.835-.872 2.276 2.276 0 00-1.157-.304c-.421 0-.805.1-1.151.297a2.156 2.156 0 00-.83.867c-.206.38-.309.825-.309 1.337 0 .52.103.97.31 1.355a2.178 2.178 0 001.979 1.182c.422 0 .807-.101 1.158-.304.35-.201.629-.495.835-.878.206-.384.31-.832.31-1.343 0-.512-.104-.957-.31-1.337zm8.187-1.77c.442.256.77.578.984.966v-1.238h1.139v6.931c0 .619-.132 1.17-.396 1.652-.264.483-.642.86-1.133 1.133-.49.272-1.062.408-1.714.408-.891 0-1.633-.21-2.227-.631a2.467 2.467 0 01-1.053-1.72h1.114c.124.412.38.744.768.996.387.252.853.377 1.398.377.62 0 1.124-.194 1.516-.581.392-.388.588-.933.588-1.634v-1.423a2.714 2.714 0 01-.99.99c-.437.264-.949.396-1.535.396a3.108 3.108 0 01-1.64-.446 3.108 3.108 0 01-1.157-1.25c-.28-.536-.42-1.146-.42-1.831 0-.694.14-1.302.42-1.826a3.06 3.06 0 011.158-1.22 3.172 3.172 0 011.64-.432c.585 0 1.099.128 1.54.383zm.675 1.77a2.188 2.188 0 00-.836-.872 2.276 2.276 0 00-1.157-.304c-.42 0-.804.1-1.15.297a2.156 2.156 0 00-.83.867c-.206.38-.31.825-.31 1.337 0 .52.104.97.31 1.355a2.18 2.18 0 001.98 1.182c.421 0 .807-.101 1.157-.304.35-.201.63-.495.836-.878.206-.384.31-.832.31-1.343 0-.512-.104-.957-.31-1.337zm3.886-3.366a.74.74 0 01-.222-.545.74.74 0 01.222-.544.74.74 0 01.545-.224c.206 0 .382.075.526.223.144.149.217.33.217.545a.753.753 0 01-.217.545.706.706 0 01-.526.222.74.74 0 01-.545-.222zm1.09 1.324v6.782h-1.127v-6.782h1.126zm7.722.624c.512.5.768 1.22.768 2.16v3.998h-1.114v-3.837c0-.676-.17-1.194-.508-1.553-.338-.359-.8-.538-1.386-.538-.594 0-1.066.186-1.417.557-.35.371-.526.912-.526 1.621v3.75h-1.126v-6.782h1.126v.965a2.24 2.24 0 01.91-.804c.384-.19.806-.285 1.268-.285.825 0 1.494.25 2.005.749zm7.445-.352c.441.256.769.578.984.966v-1.238h1.138v6.931c0 .619-.132 1.17-.396 1.652-.264.483-.641.86-1.132 1.133-.491.272-1.063.408-1.714.408-.892 0-1.634-.21-2.228-.631a2.467 2.467 0 01-1.052-1.72h1.114c.123.412.38.744.767.996.388.252.854.377 1.399.377.619 0 1.124-.194 1.516-.581.392-.388.588-.933.588-1.634v-1.423a2.714 2.714 0 01-.99.99c-.438.264-.95.396-1.535.396-.603 0-1.15-.149-1.64-.446a3.108 3.108 0 01-1.157-1.25c-.281-.536-.421-1.146-.421-1.831 0-.694.14-1.302.42-1.826.281-.524.667-.93 1.158-1.22a3.172 3.172 0 011.64-.432c.585 0 1.1.128 1.54.383zm.674 1.77a2.188 2.188 0 00-.835-.872 2.276 2.276 0 00-1.157-.304c-.421 0-.805.1-1.151.297a2.156 2.156 0 00-.83.867c-.206.38-.309.825-.309 1.337 0 .52.103.97.31 1.355a2.178 2.178 0 001.979 1.182c.421 0 .807-.101 1.158-.304.35-.201.629-.495.835-.878.206-.384.31-.832.31-1.343 0-.512-.104-.957-.31-1.337zm8.856 4.524a2.55 2.55 0 01-1.059-.842 2.16 2.16 0 01-.395-1.244h1.2c.041.405.208.745.501 1.021.293.277.72.415 1.281.415.537 0 .959-.134 1.269-.402.309-.268.464-.613.464-1.034 0-.33-.091-.598-.272-.804a1.749 1.749 0 00-.681-.47 10.548 10.548 0 00-1.101-.347 9.66 9.66 0 01-1.368-.446 2.203 2.203 0 01-.879-.699c-.243-.318-.365-.745-.365-1.28 0-.471.12-.888.359-1.25a2.339 2.339 0 011.009-.843c.433-.198.93-.297 1.491-.297.809 0 1.471.203 1.987.607.515.404.806.94.872 1.609h-1.237c-.042-.33-.215-.62-.52-.873-.306-.251-.71-.377-1.213-.377-.471 0-.854.121-1.151.365-.297.243-.446.584-.446 1.02 0 .315.089.57.266.768.178.198.396.349.656.452.26.103.625.22 1.096.353a10.27 10.27 0 011.373.464c.347.153.644.388.892.705.247.318.371.749.371 1.294 0 .42-.112.816-.334 1.188-.223.371-.553.672-.99.903-.438.231-.953.347-1.548.347-.569 0-1.079-.1-1.528-.303zm6.59-7.89a.742.742 0 01-.222-.545.74.74 0 01.222-.544.742.742 0 01.545-.224c.206 0 .382.075.526.223.144.149.217.33.217.545a.753.753 0 01-.217.545.706.706 0 01-.526.222.741.741 0 01-.545-.222zm1.089 1.324v6.782h-1.126v-6.782h1.126zm3.787.928v3.998c0 .33.071.563.211.7.14.135.384.203.73.203h.83v.953h-1.015c-.627 0-1.098-.144-1.411-.433-.314-.288-.471-.763-.471-1.423v-3.998h-.878v-.928h.878v-1.708h1.126v1.708h1.771v.928h-1.771zm9.778 2.884h-5.421c.041.668.27 1.19.687 1.566.416.375.922.563 1.516.563.487 0 .893-.113 1.219-.34a1.8 1.8 0 00.687-.91h1.213a2.921 2.921 0 01-1.089 1.59c-.545.409-1.221.613-2.03.613-.643 0-1.219-.145-1.726-.433a3.065 3.065 0 01-1.195-1.232c-.289-.532-.433-1.149-.433-1.85 0-.702.14-1.316.421-1.844.28-.528.674-.935 1.182-1.22.507-.284 1.091-.427 1.751-.427.643 0 1.213.141 1.708.421.495.281.877.667 1.145 1.158.268.49.402 1.045.402 1.664 0 .215-.012.442-.037.681zm-1.411-2.023a1.855 1.855 0 00-.773-.706 2.414 2.414 0 00-1.083-.241c-.57 0-1.055.181-1.455.544-.4.363-.629.867-.687 1.51h4.283c0-.429-.095-.798-.285-1.107z" fill="#9F9FC1"/>
  <path d="M44.8 12.123C40.248 1.84 28.223-2.804 17.942 1.748 7.66 6.299 3.015 18.324 7.567 28.605a20.434 20.434 0 002.123 3.697L.943 41.05a3.22 3.22 0 104.555 4.555l8.75-8.75c5.675 4.1 13.313 5.165 20.177 2.126C44.706 34.43 49.35 22.404 44.8 12.123zM32.268 34.108c-4.778 2.115-10.077 1.53-14.184-1.09l2.211-2.21a3.22 3.22 0 10-4.555-4.556l-2.216 2.217a15.09 15.09 0 01-1.085-2.02C9.084 18.87 12.52 9.975 20.1 6.62c7.578-3.355 16.473.081 19.829 7.66 3.355 7.578-.081 16.473-7.66 19.828z" fill="url(#SYElYheNzBba)"/>
  <path d="M32.153 22.67a6.383 6.383 0 01-3.378 3.548 6.41 6.41 0 01-8.446-3.262 6.41 6.41 0 013.263-8.446 6.41 6.41 0 018.44 3.252l7.884-3.507C36.547 6.682 27.681 3.263 20.1 6.62c-7.59 3.36-11.02 12.238-7.66 19.829 3.36 7.59 12.238 11.02 19.829 7.66a14.984 14.984 0 007.936-8.329l-8.051-3.11z" fill="#6768F2"/>
  <path d="M23.592 14.51a6.41 6.41 0 018.446 3.262l7.89-3.492c-3.36-7.591-12.239-11.02-19.83-7.66-7.59 3.36-11.02 12.238-7.659 19.829l7.89-3.493a6.41 6.41 0 013.263-8.446z" fill="#4341A6"/>
  <path d="M26.183 15.062a5.302 5.302 0 00-4.846 7.447l9.693-4.29a5.3 5.3 0 00-4.847-3.157z" fill="#4341A6"/>
  <defs>
    <linearGradient id="SYElYheNzBba" x1="2.785" y1="43.763" x2="40.494" y2="6.053" gradientUnits="userSpaceOnUse">
      <stop stop-color="#66E9FF"/>
      <stop offset="1" stop-color="#6768F2"/>
    </linearGradient>
  </defs>
</svg>
