<svg xmlns="http://www.w3.org/2000/svg" fill="none" viewBox="0 0 15 14">
  <g clip-path="url(#Pgkpa8gag4a)">
    <path d="M14.999 6.806v-.003a3.743 3.743 0 00-.17-1.05c-.167-.49-.417-.645-.626-.677l-1.254-.46-.415-.615-.008-.012-.347-.673.201-1.32c.073-.199.057-.492-.29-.872a3.74 3.74 0 00-.84-.656l-.002-.002-.062-.035c-.494-.272-.974-.427-1.32-.427-.305 0-.476.12-.569.228L8.26 1.08l-.637.036-.113.007-.761-.044-1.036-.85C5.62.12 5.449 0 5.143 0c-.346 0-.826.155-1.319.426h-.001L3.82.427 3.763.46H3.76v.001c-.34.2-.638.432-.842.655-.347.38-.363.673-.291.872l.2 1.32-.349.672-.423.627-1.256.457c-.208.033-.459.187-.626.676a3.745 3.745 0 00-.171 1.05v.001L0 6.864a3.74 3.74 0 00.134 1.058c.15.493.394.657.602.696l1.237.502.4.642.324.684-.247 1.313c-.079.196-.073.49.26.881.196.23.485.473.818.685l.061.039h.001c.505.301.994.474 1.345.474.28 0 .444-.11.536-.21l1.066-.81.773-.018 1.146.02 1.063.811c.092.101.256.21.537.21.351 0 .84-.171 1.344-.471l.062-.038c.333-.212.623-.454.819-.684.334-.391.34-.685.261-.882l-.245-1.312.319-.67a.035.035 0 01.006-.014l.401-.642 1.239-.5c.207-.039.452-.202.602-.694A3.74 3.74 0 0015 6.874l-.001-.068zm-7.568 3.21c-1.67 0-3.03-1.36-3.03-3.03 0-1.67 1.36-3.03 3.03-3.03 1.67 0 3.03 1.36 3.03 3.03 0 1.67-1.36 3.03-3.03 3.03z" fill="#4341A6"/>
  </g>
  <defs>
    <clipPath id="Pgkpa8gag4a">
      <path fill="#fff" d="M0 0h15v13.842H0z"/>
    </clipPath>
  </defs>
</svg>
