<svg xmlns="http://www.w3.org/2000/svg" fill="none" viewBox="0 0 15 15">
  <g clip-path="url(#vQ-PnAESiZYa)">
    <path d="M2.813 3.75a1.875 1.875 0 100-3.75 1.875 1.875 0 000 3.75zm9.375 0a1.875 1.875 0 100-3.75 1.875 1.875 0 000 3.75z" fill="#7978C1"/>
    <path d="M7.5 3.75A1.875 1.875 0 107.5 0a1.875 1.875 0 000 3.75zm1.451.937H6.05a.935.935 0 00-.933.845L4.69 9.797a.47.47 0 00.466.515h.513l.385 3.844c.048.48.449.844.933.844h1.026a.934.934 0 00.933-.844l.384-3.844h.514a.47.47 0 00.466-.515l-.427-4.265a.934.934 0 00-.932-.845z" fill="#4341A6"/>
    <path d="M3.757 9.703l.427-4.265c.026-.265.122-.501.245-.72-.055-.01-.107-.03-.165-.03H1.362a.935.935 0 00-.933.844L.002 9.797a.47.47 0 00.467.515h.513l.384 2.906c.048.481.45.844.933.844h1.027a.934.934 0 00.932-.844l.281-2.124a1.389 1.389 0 01-.425-.305 1.415 1.415 0 01-.357-1.086zM14.57 5.532a.934.934 0 00-.931-.845h-2.902c-.059 0-.11.021-.167.032.123.218.22.454.246.72l.427 4.265c.04.39-.088.785-.354 1.08-.121.135-.27.232-.428.31l.28 2.124c.048.481.45.844.934.844H12.7a.934.934 0 00.932-.844l.385-2.905h.513a.47.47 0 00.466-.516l-.426-4.265z" fill="#7978C1"/>
  </g>
  <defs>
    <clipPath id="vQ-PnAESiZYa">
      <path fill="#fff" d="M0 0h15v15H0z"/>
    </clipPath>
  </defs>
</svg>
